#!OML:ASF H:\MichaelJackson\Top Level 1\Subject 1\Session 1\male.ASF
:FULLY-SPECIFIED
:DEGREES
1053
root 1.2059 15.1598 32.5522 4.8971 -3.38368 363.442
lowerback -1.83398 -0.0586299 -0.234599
upperback -0.484144 -0.0404699 -6.0458
thorax 0.527315 -0.0218679 -6.13558
lowerneck -7.00434 0.736767 6.54224
upperneck 1.28921 0.297106 3.68881
head 1.59439 0.275581 0.0628082
rclavicle -4.87022e-015 -8.11041e-014
rhumerus 2.12417 -23.4987 0.616197
rradius 27.4845
rwrist -9.69869
rhand -30.5002 -41.9963
rfingers 7.12502
rthumb -3.80045 -791.942
lclavicle -4.87022e-015 -8.11041e-014
lhumerus -58.7312 -46.8888 115.419
lradius 55.8083
lwrist 25.5583
lhand 37.4441 25.3229
lfingers 7.12502
lthumb 60.2448 38.8436
rfemur -31.045 -15.6551 -6.3002
rtibia 50.0132
rfoot -21.8529 5.39995
rtoes -40.9429
lfemur 8.78438 0.452437 5.68269
ltibia -4.29375e-014
lfoot -30.3802 -11.1841
ltoes -34.2515
1054
root 1.20742 15.1604 32.5567 4.89644 -3.36699 363.426
lowerback -1.84949 -0.0591515 -0.23775
upperback -0.481618 -0.0403918 -6.04081
thorax 0.538647 -0.0216325 -6.12852
lowerneck -7.02358 0.721635 6.52511
upperneck 1.31361 0.274774 3.70933
head 1.60533 0.265926 0.071419
rclavicle 6.65929e-015 5.08889e-014
rhumerus 2.09021 -23.4821 0.630099
rradius 27.4814
rwrist -9.66846
rhand -30.4967 -41.9676
rfingers 7.12502
rthumb -3.79714 -791.914
lclavicle 6.65929e-015 5.08889e-014
lhumerus -58.7351 -46.919 115.431
lradius 55.8124
lwrist 25.58
lhand 37.458 25.3174
lfingers 7.12502
lthumb 60.2566 38.8255
rfemur -31.0032 -15.6342 -6.29867
rtibia 49.9955
rfoot -21.8471 5.37627
rtoes -40.9286
lfemur 8.79663 0.4381 5.69244
ltibia 3.18055e-015
lfoot -30.3913 -11.1649
ltoes -34.2743
1055
root 1.20902 15.1608 32.5613 4.89526 -3.3544 363.412
lowerback -1.86352 -0.0585045 -0.243808
upperback -0.478533 -0.038728 -6.03469
thorax 0.549891 -0.0205969 -6.11856
lowerneck -7.045 0.707426 6.50905
upperneck 1.33724 0.253593 3.72491
head 1.61646 0.256736 0.0783323
rclavicle 2.18663e-015 2.54444e-014
rhumerus 2.05959 -23.473 0.646342
rradius 27.4787
rwrist -9.64481
rhand -30.5 -41.9501
rfingers 7.12502
rthumb -3.80028 -791.896
lclavicle 2.18663e-015 2.54444e-014
lhumerus -58.7326 -46.9443 115.439
lradius 55.8165
lwrist 25.5971
lhand 37.4675 25.3077
lfingers 7.12502
lthumb 60.2647 38.8071
rfemur -30.964 -15.6172 -6.29884
rtibia 49.9779
rfoot -21.8435 5.35955
rtoes -40.916
lfemur 8.81127 0.427112 5.69968
ltibia -3.02153e-014
lfoot -30.4036 -11.1476
ltoes -34.2928
1056
root 1.2107 15.1612 32.5657 4.89419 -3.34656 363.4
lowerback -1.87556 -0.0569178 -0.252692
upperback -0.475624 -0.0358484 -6.0269
thorax 0.559973 -0.0189733 -6.10515
lowerneck -7.06618 0.695053 6.49498
upperneck 1.35781 0.235096 3.73373
head 1.62663 0.248626 0.0828707
rclavicle -6.16232e-015 2.54444e-014
rhumerus 2.03378 -23.4696 0.664435
rradius 27.4774
rwrist -9.62774
rhand -30.5093 -41.9406
rfingers 7.12502
rthumb -3.80933 -791.886
lclavicle -6.16232e-015 2.54444e-014
lhumerus -58.7222 -46.9594 115.442
lradius 55.8192
lwrist 25.6082
lhand 37.4718 25.2958
lfingers 7.12502
lthumb 60.2684 38.7912
rfemur -30.9284 -15.6036 -6.30012
rtibia 49.9602
rfoot -21.8415 5.3503
rtoes -40.9044
lfemur 8.82766 0.420368 5.70476
ltibia -1.43125e-014
lfoot -30.4164 -11.1322
ltoes -34.3076
1057
root 1.21248 15.1616 32.5701 4.89405 -3.34364 363.39
lowerback -1.88599 -0.0547184 -0.263582
upperback -0.473519 -0.0322281 -6.01737
thorax 0.568394 -0.017016 -6.08872
lowerneck -7.08404 0.685087 6.48338
upperneck 1.37235 0.220448 3.73534
head 1.63432 0.242022 0.0848435
rclavicle 6.16232e-015 3.18055e-014
rhumerus 2.01322 -23.4684 0.68385
rradius 27.4779
rwrist -9.61654
rhand -30.5229 -41.9358
rfingers 7.12502
rthumb -3.82243 -791.881
lclavicle 6.16232e-015 3.18055e-014
lhumerus -58.703 -46.9605 115.44
lradius 55.8193
lwrist 25.6134
lhand 37.4734 25.2851
lfingers 7.12502
lthumb 60.2697 38.779
rfemur -30.8972 -15.5928 -6.30183
rtibia 49.9423
rfoot -21.8406 5.34837
rtoes -40.8932
lfemur 8.84486 0.418396 5.70819
ltibia 4.13472e-014
lfoot -30.4291 -11.118
ltoes -34.3209
1058
root 1.21436 15.1619 32.5743 4.89549 -3.34555 363.379
lowerback -1.89516 -0.052114 -0.275166
upperback -0.472648 -0.0281795 -6.00623
thorax 0.574884 -0.0148906 -6.07016
lowerneck -7.09659 0.677747 6.4736
upperneck 1.37887 0.210229 3.73109
head 1.63852 0.237143 0.0848023
rclavicle 2.28602e-015 -6.36111e-015
rhumerus 1.99712 -23.4643 0.704434
rradius 27.4811
rwrist -9.61091
rhand -30.5391 -41.9317
rfingers 7.12502
rthumb -3.83804 -791.877
lclavicle 2.28602e-015 -6.36111e-015
lhumerus -58.6755 -46.9462 115.433
lradius 55.8159
lwrist 25.6146
lhand 37.4729 25.2791
lfingers 7.12502
lthumb 60.2694 38.7735
rfemur -30.8708 -15.5841 -6.30291
rtibia 49.924
rfoot -21.8403 5.35313
rtoes -40.8819
lfemur 8.86202 0.421454 5.71093
ltibia 4.77083e-015
lfoot -30.4413 -11.1055
ltoes -34.3328
1059
root 1.21631 15.1623 32.5784 4.89904 -3.3519 363.369
lowerback -1.90373 -0.0493445 -0.286637
upperback -0.473228 -0.0240243 -5.994
thorax 0.579544 -0.012759 -6.05051
lowerneck -7.10248 0.672971 6.46491
upperneck 1.37605 0.204529 3.72326
head 1.63856 0.23402 0.0835897
rclavicle -3.8763e-015 1.74931e-014
rhumerus 1.98481 -23.4552 0.725074
rradius 27.4864
rwrist -9.60644
rhand -30.5558 -41.9247
rfingers 7.12502
rthumb -3.8542 -791.87
lclavicle -3.8763e-015 1.74931e-014
lhumerus -58.641 -46.9179 115.42
lradius 55.8091
lwrist 25.6139
lhand 37.4735 25.2807
lfingers 7.12502
lthumb 60.2698 38.7745
rfemur -30.8493 -15.5769 -6.30312
rtibia 49.9051
rfoot -21.8401 5.36364
rtoes -40.87
lfemur 8.87836 0.429429 5.71326
ltibia -2.70347e-014
lfoot -30.4525 -11.0946
ltoes -34.3436
